<?xml version="1.0" encoding="UTF-8" standalone="no"?>
<!-- Created with Inkscape (http://www.inkscape.org/) -->

<svg
   width="92.544357mm"
   height="85.152275mm"
   viewBox="0 0 92.544357 85.152275"
   version="1.1"
   id="svg1"
   inkscape:version="1.4.2 (ebf0e940d0, 2025-05-08)"
   sodipodi:docname="square_dark.svg"
   xmlns:inkscape="http://www.inkscape.org/namespaces/inkscape"
   xmlns:sodipodi="http://sodipodi.sourceforge.net/DTD/sodipodi-0.dtd"
   xmlns="http://www.w3.org/2000/svg"
   xmlns:svg="http://www.w3.org/2000/svg">
  <sodipodi:namedview
     id="namedview1"
     pagecolor="#000000"
     bordercolor="#666666"
     borderopacity="1.0"
     inkscape:showpageshadow="2"
     inkscape:pageopacity="0.0"
     inkscape:pagecheckerboard="0"
     inkscape:deskcolor="#d1d1d1"
     inkscape:document-units="mm"
     inkscape:zoom="1.0111181"
     inkscape:cx="398.07416"
     inkscape:cy="403.01918"
     inkscape:window-width="2560"
     inkscape:window-height="1395"
     inkscape:window-x="0"
     inkscape:window-y="45"
     inkscape:window-maximized="1"
     inkscape:current-layer="layer1" />
  <defs
     id="defs1" />
  <g
     inkscape:label="Layer 1"
     inkscape:groupmode="layer"
     id="layer1"
     transform="translate(0.26458373,-41.804167)">
    <path
       d="m 77.456049,41.846455 c 4.663723,0.254 9.136945,2.575278 11.634611,6.586361 1.707445,2.769305 2.233084,5.93725 2.039056,9.154583 -0.306917,5.245804 -2.607028,10.311693 -6.861528,13.514915 -5.192889,4.198056 -12.968111,4.5085 -18.541999,0.871361 0.236361,-1.2065 0.493888,-3.01625 -0.419806,-4.0005 -1.146528,-0.839611 -2.741083,-0.910166 -4.028722,-0.359833 l 0.162278,-0.155222 c -1.188861,-2.247195 -2.240139,-4.480278 -2.57175,-7.034389 -0.9525,-5.806721 1.837972,-11.814526 6.625166,-15.141221 3.344334,-2.621139 7.761111,-3.71475 11.962694,-3.436055 z"
       fill="#db2730"
       id="path2"
       style="stroke-width:0.352778" />
    <path
       d="m 16.778274,44.104233 c 14.788445,0.01058 29.573359,0.01058 44.361804,0 -1.520473,1.2065 -2.751667,2.656416 -3.894667,4.215694 -13.723055,0.01411 -27.449637,0.0071 -41.17622,0.0035 -1.823861,0.03528 -3.626555,0.504472 -4.751916,2.046111 -1.033639,1.308805 -0.931334,3.160889 -1.093612,4.748389 -2.1378328,19.737915 -3.8699717,39.525221 -5.976055,59.280773 -0.1023055,1.08656 -0.2469444,2.30011 0.010583,3.36903 0.2751666,0.96308 1.3370277,1.60161 2.300111,1.22414 0.8960556,-0.37395 1.6051389,-1.27706 2.3036389,-1.93322 6.7345281,-6.42762 13.4831671,-12.87639 20.2706111,-19.24403 3.545417,-3.277306 6.960304,-6.688667 10.544526,-9.916583 7.112,-6.843889 14.386278,-13.553723 21.600583,-20.284723 1.287639,-0.550333 2.882194,-0.479778 4.028722,0.359833 0.913694,0.98425 0.656167,2.794 0.419806,4.0005 -0.860778,1.097139 -1.912056,2.106084 -2.88925,3.104445 -6.074834,6.378222 -12.319,12.618861 -18.474972,18.926528 -5.090583,5.36575 -10.389304,10.541 -15.557498,15.82914 -4.307417,4.27566 -8.466667,8.70302 -12.788195,12.96458 -1.421694,1.36172 -2.726972,2.74108 -4.596694,3.48192 -3.0585836,1.31233 -7.0273335,0.70555 -9.3627223,-1.74273 -1.83797223,-1.8415 -2.46944445,-4.43794 -2.29305557,-6.97794 0.16227778,-1.98967 0.38452778,-3.97228 0.57855556,-5.95489 C 2.2614692,93.157981 3.9724414,74.63362 5.9409413,56.176288 c 0.1905,-2.236611 0.1940278,-4.815417 1.1676945,-6.868583 0.9242777,-2.120195 2.7798888,-3.707695 4.9212502,-4.519084 1.541638,-0.596194 3.1115,-0.6985 4.748388,-0.684388 z"
       fill="#1f1e1e"
       id="path3"
       style="fill:#f2f2f2;stroke-width:0.352778" />
    <path
       d="m 92.279771,67.302898 c -0.15875,3.351388 -0.66675,6.716888 -1.008944,10.057695 -0.994833,8.449027 -1.732139,16.919221 -2.614083,25.378837 -0.617361,5.53155 -1.185334,11.06311 -1.813278,16.59466 -0.373945,2.38125 -1.788583,4.60375 -3.785306,5.94783 -1.654527,1.04775 -3.651249,1.56987 -5.602111,1.56987 -19.938999,-0.0529 -39.877999,0.0176 -59.816997,-0.0494 1.485195,-1.19239 2.892778,-2.45181 4.310945,-3.72181 0.550333,-0.56092 1.157111,-0.45508 1.880305,-0.4833 17.875248,0.0247 35.754026,0 53.629275,0.0247 1.781528,0.0212 3.615972,-0.68439 4.617861,-2.21897 0.687917,-0.98425 0.723195,-2.03553 0.832556,-3.18911 1.485194,-14.36864 2.913944,-28.903085 4.325055,-43.289364 1.04775,-1.054805 2.081389,-2.032 2.977445,-3.227916 0.783166,-1.044222 1.386416,-2.264833 2.067277,-3.393722 z"
       fill="#1f1e1e"
       id="path10"
       style="fill:#f2f2f2;stroke-width:0.352778" />
  </g>
</svg>
