<?xml version="1.0" encoding="UTF-8" standalone="no"?>
<svg
   version="1.1"
   viewBox="0 0 901.90045 241.37662"
   width="901.90045pt"
   height="241.37662pt"
   id="svg16"
   sodipodi:docname="logo_horizontal_dark.svg"
   inkscape:version="1.4.2 (ebf0e940d0, 2025-05-08)"
   xmlns:inkscape="http://www.inkscape.org/namespaces/inkscape"
   xmlns:sodipodi="http://sodipodi.sourceforge.net/DTD/sodipodi-0.dtd"
   xmlns="http://www.w3.org/2000/svg"
   xmlns:svg="http://www.w3.org/2000/svg">
  <defs
     id="defs16" />
  <sodipodi:namedview
     id="namedview16"
     pagecolor="#000000"
     bordercolor="#666666"
     borderopacity="1.0"
     inkscape:showpageshadow="2"
     inkscape:pageopacity="0.0"
     inkscape:pagecheckerboard="0"
     inkscape:deskcolor="#d1d1d1"
     inkscape:document-units="pt"
     inkscape:zoom="1.180148"
     inkscape:cx="617.71913"
     inkscape:cy="215.65092"
     inkscape:window-width="2560"
     inkscape:window-height="1395"
     inkscape:window-x="0"
     inkscape:window-y="45"
     inkscape:window-maximized="1"
     inkscape:current-layer="svg16" />
  <path
     d="m 220.31046,0.11987101 c 13.22,0.72 25.9,7.29999999 32.98,18.66999999 4.84,7.85 6.33,16.83 5.78,25.95 -0.87,14.869997 -7.39,29.229997 -19.45,38.309997 -14.72,11.9 -36.76,12.78 -52.56,2.47 0.67,-3.42 1.4,-8.55 -1.19,-11.34 -3.25,-2.38 -7.77,-2.58 -11.42,-1.02 l 0.46,-0.44 c -3.37,-6.37 -6.35,-12.7 -7.29,-19.94 -2.7,-16.459997 5.21,-33.489997 18.78,-42.919997 9.48,-7.43 22,-10.52999999 33.91,-9.73999999 z"
     fill="#db2730"
     id="path2" />
  <path
     d="m 48.310464,6.519871 c 41.92,0.03 83.829996,0.03 125.749996,0 -4.31,3.42 -7.8,7.53 -11.04,11.95 -38.9,0.04 -77.809996,0.02 -116.719996,0.01 -5.17,0.1 -10.28,1.43 -13.47,5.8 -2.93,3.71 -2.64,8.96 -3.1,13.46 -6.06,55.949997 -10.97,112.039999 -16.94,168.039999 -0.29,3.08 -0.7,6.52 0.03,9.55 0.78,2.73 3.79,4.54 6.52,3.47 2.54,-1.06 4.55,-3.62 6.53,-5.48 19.09,-18.22 38.22,-36.5 57.46,-54.55 10.05,-9.29 19.729996,-18.96 29.889996,-28.11 20.16,-19.4 40.78,-38.420002 61.23,-57.500002 3.65,-1.56 8.17,-1.36 11.42,1.02 2.59,2.79 1.86,7.92 1.19,11.34 -2.44,3.11 -5.42,5.97 -8.19,8.8 -17.22,18.080002 -34.92,35.770002 -52.37,53.650002 -14.43,15.21 -29.449996,29.88 -44.099996,44.87 -12.21,12.12 -24,24.67 -36.25,36.75 -4.03,3.86 -7.73,7.77 -13.03,9.87 -8.67,3.72 -19.92,2 -26.5400001,-4.94 -5.21,-5.22 -7.00000003,-12.58 -6.50000003,-19.78 0.46,-5.64 1.09000003,-11.26 1.64000003,-16.88 5.44,-52.29 10.2900001,-104.800002 15.8700001,-157.119999 0.54,-6.34 0.55,-13.65 3.31,-19.47 2.62,-6.01 7.88,-10.51 13.95,-12.81 4.37,-1.69 8.82,-1.98 13.46,-1.94 z"
     fill="#1f1e1e"
     id="path3"
     style="fill:#f2f2f2" />
  <path
     d="m 619.77046,60.459868 c 4.66,-1.25 9.59,-0.93 14.01,0.98 4.3,2.12 6.17,6.7 6,11.33 -0.32,5.54 -3.21,11.56 -8.38,14.1 -5.82,2.7 -12.69,2.9 -18.55,0.18 -2.86,-1.47 -4.58,-4.07 -4.93,-7.25 -0.77,-8.14 3.18,-17.44 11.85,-19.34 z"
     fill="#1f1e1e"
     id="path4"
     style="fill:#f2f2f2" />
  <path
     d="m 811.54046,60.119868 c 4.21,-0.88 9.03,-0.5 12.86,1.55 3,1.61 4.92,4.67 5.34,8.01 0.64,5.17 -0.9,11.1 -4.72,14.79 -3.38,3.47 -9.04,4.65 -13.73,4.54 -3.71,-0.25 -8.53,-1.19 -10.98,-4.28 -2.3,-2.84 -1.99,-7.56 -1.59,-10.97 0.89,-6.78 5.92,-12.62 12.82,-13.64 z"
     fill="#1f1e1e"
     id="path5"
     style="fill:#f2f2f2" />
  <path
     d="m 316.93046,62.139868 c 9.77,-0.35 19.61,-0.03 29.39,-0.12 -2.76,19.91 -6.77,39.640002 -9.83,59.510002 -2.88,15.96 -5.21,32.01 -8.04,47.98 6.3,0.72 12.54,0.47 18.86,0.51 12.94,0.01 25.88,0.03 38.82,-0.01 -1.31,8.12 -2.58,16.23 -4.26,24.28 -29.04,0.09 -58.07,0.05 -87.11,-0.03 1.65,-9.19 3.01,-18.43 4.62,-27.62 5.36,-30.58 9.99,-61.27 15.23,-91.860002 0.75,-4.2 1.09,-8.56 2.32,-12.64 z"
     fill="#1f1e1e"
     id="path6"
     style="fill:#f2f2f2" />
  <path
     d="m 520.17046,62.179868 c 9.29,-0.34 18.67,-0.09 27.97,-0.13 -7.77,44.020002 -15.52,88.050002 -22.76,132.160002 -9.36,0.14 -18.72,0.11 -28.07,0.07 4.87,-28.19 9.61,-56.39 14.59,-84.56 2.86,-15.800002 5.23,-31.800002 8.27,-47.540002 z"
     fill="#1f1e1e"
     id="path7"
     style="fill:#f2f2f2" />
  <path
     d="m 566.20046,62.019868 c 9.26,0.08 18.53,-0.05 27.79,0.01 -3.64,21.57 -7.48,43.090002 -10.95,64.690002 -3.7,22.53 -7.77,44.99 -11.58,67.5 -9.35,0.18 -18.71,0.12 -28.06,0.07 2.91,-18.5 6.71,-36.85 9.71,-55.33 2.61,-14.54 4.74,-29.17 7.43,-43.710002 1.75,-11.09 4.13,-22.1 5.66,-33.23 z"
     fill="#1f1e1e"
     id="path8"
     style="fill:#f2f2f2" />
  <path
     d="m 790.51046,62.089868 c -1.25,8.05 -2.6,16.1 -4.2,24.09 -20.01,0.13 -40.03,-0.24 -60.04,0.08 -1.53,11.11 -4.14,22.060002 -5.87,33.130002 17.97,0.15 35.93,-0.01 53.9,0.06 -0.92,7.89 -2.33,15.89 -4.34,23.57 -17.99,-0.06 -35.99,0 -53.99,-0.02 -2.99,17.08 -6.01,34.21 -9.01,51.29 -9.8,0.03 -19.61,0 -29.42,-0.05 3.74,-19.85 7.18,-39.76 10.75,-59.64 4.07,-24.2 8.75,-48.270002 12.91,-72.460002 29.73,-0.16 59.56,-0.06 89.31,-0.05 z"
     fill="#1f1e1e"
     id="path9"
     style="fill:#f2f2f2" />
  <path
     d="m 262.33046,72.279868 c -0.45,9.5 -1.89,19.04 -2.86,28.510002 -2.82,23.95 -4.91,47.96 -7.41,71.94 -1.75,15.68 -3.36,31.36 -5.14,47.04 -1.06,6.75 -5.07,13.05 -10.73,16.86 -4.69,2.97 -10.35,4.45 -15.88,4.45 -56.52,-0.15 -113.04,0.05 -169.559996,-0.14 4.21,-3.38 8.2,-6.95 12.22,-10.55 1.56,-1.59 3.28,-1.29 5.33,-1.37 50.669996,0.07 101.349996,0 152.019996,0.07 5.05,0.06 10.25,-1.94 13.09,-6.29 1.95,-2.79 2.05,-5.77 2.36,-9.04 4.21,-40.73 8.26,-81.93 12.26,-122.710002 2.97,-2.99 5.9,-5.76 8.44,-9.15 2.22,-2.96 3.93,-6.42 5.86,-9.62 z"
     fill="#1f1e1e"
     id="path10"
     style="fill:#f2f2f2" />
  <path
     d="m 854.47043,74.199868 c 8.8,-0.41 17.66,-0.07 26.48,-0.31 -1.49,8.75 -3.34,17.44 -4.63,26.210002 8.52,0.13 17.05,0.02 25.58,0.06 -1.91,7.15 -2.62,14.58 -4.64,21.68 -8.24,0.37 -16.53,-0.01 -24.79,0.13 -2.46,13.59 -4.73,27.2 -7.29,40.77 -0.45,2.66 -0.82,5.26 0.41,7.77 1.18,2.61 3.99,3.77 6.7,3.94 6.15,0.47 12.58,-1.83 18.47,-3.45 -1.35,7.23 -2.88,14.41 -4.13,21.66 -10.39,3.94 -22.35,5.7 -33.32,3.43 -7.03997,-1.61 -13.76997,-5.7 -16.22997,-12.85 -3.01,-8.3 -0.22,-17.2 1.34,-25.5 2.19,-11.9 4.54,-23.8 6.39,-35.75 -5.17,0.01 -10.35,-0.02 -15.52,-0.01 0.72,-7.41 2.84,-14.39 4,-21.71 5.37,-0.04 10.75,-0.05 16.12997,-0.15 1.65,-8.630002 3.01,-17.390002 5.05,-25.920002 z"
     fill="#1f1e1e"
     id="path11"
     style="fill:#f2f2f2" />
  <path
     id="path12"
     style="fill:#f2f2f2"
     d="m 445.45993,96.599928 c -12.69,1.01 -24.98012,5.219222 -34.62012,13.699222 -11.73,10.28 -18.41951,26.11138 -19.99951,41.42138 -1.04,10.59 0.77974,22.41903 7.48974,30.99903 6.15,8.28 16.18045,12.83968 26.21045,14.17968 14.24,1.33 28.36932,0.31065 41.04932,-6.83935 11.65,-6.28 20.30031,-16.96057 24.82031,-29.33057 3.44,-9.52 5.18994,-19.86974 4.43994,-29.98974 -0.9,-10.11 -5.53894,-19.68942 -13.91894,-25.64942 -10.57,-7.510002 -22.79119,-9.120232 -35.47119,-8.490232 z m 4.08984,21.936032 c 3.76828,0.18047 7.59012,1.18899 10.62012,3.33399 3.28,2.24 5.31062,6.03961 6.14062,9.84961 1.44,6.48 0.33934,13.19006 -1.18066,19.56006 -2.05,8.18 -6.42961,15.95015 -13.59961,20.66015 -5.58,3.28 -12.88977,5.1108 -19.25977,3.3208 -4.26,-1.04 -8.1898,-3.13068 -10.5498,-6.95068 -3.39,-5.11 -3.33983,-11.7201 -2.81983,-17.6001 1.25,-9.47 4.95914,-19.64002 12.36914,-26.02002 4.05,-3.62 9.19055,-5.58031 14.56055,-6.07031 1.2125,-0.1125 2.46315,-0.14365 3.71924,-0.0835 z" />
  <path
     d="m 605.96046,100.35987 c 9.04,-0.35 18.16,-0.14 27.22,-0.17 -3.04,21.26 -7.68,42.32 -11.07,63.53 -1.85,10.16 -3.33,20.38 -5.26,30.52 -9.16,0.01 -18.33,0.17 -27.48,0.03 4.9,-28.17 9.57,-56.37 14.65,-84.51 0.54,-3.1 0.92,-6.43 1.94,-9.4 z"
     fill="#1f1e1e"
     id="path13"
     style="fill:#f2f2f2" />
  <path
     d="m 795.68046,100.28987 c 9.15,-0.300002 18.36,0 27.53,-0.17 -5.35,31.44 -11.05,62.77 -16.73,94.14 -9.25,0.2 -18.48,-0.02 -27.73,0.07 4.97,-27.52 10.01,-55.04 14.68,-82.62 0.66,-3.8 1.13,-7.72 2.25,-11.42 z"
     fill="#1f1e1e"
     id="path14"
     style="fill:#f2f2f2" />
  <path
     d="m 645.96046,164.65987 c 4.2,-1.26 9.07,-1.18 13.16,0.45 4.68,1.88 7.84,6.59 7.77,11.64 -0.14,6.13 -2.9,12.94 -8.09,16.5 -4.79,3.57 -10.59,3.86 -16.3,2.85 -4.57,-1.32 -7.95,-4.63 -9.09,-9.3 -2,-9.23 3.08,-19.58 12.55,-22.14 z"
     fill="#1f1e1e"
     id="path16"
     style="fill:#f2f2f2" />
</svg>
